<?xml version="1.0" standalone="no"?>
<!DOCTYPE svg PUBLIC "-//W3C//DTD SVG 20010904//EN"
 "http://www.w3.org/TR/2001/REC-SVG-20010904/DTD/svg10.dtd">
<svg version="1.0" xmlns="http://www.w3.org/2000/svg"
 width="1280.000000pt" height="1280.000000pt" viewBox="0 0 1280.000000 1280.000000"
 preserveAspectRatio="xMidYMid meet">
<g transform="translate(0.000000,1280.000000) scale(0.100000,-0.100000)"
fill="#000000" stroke="none">
<path d="M3820 10854 c-19 -2 -78 -9 -130 -15 -467 -54 -942 -245 -1320 -530
-563 -426 -901 -1030 -986 -1760 -23 -200 -15 -603 15 -804 108 -707 431
-1354 1018 -2041 70 -82 240 -262 378 -400 426 -426 744 -697 1731 -1471 572
-449 805 -642 1088 -901 330 -303 613 -644 742 -895 21 -43 41 -77 44 -77 3 0
23 34 44 77 129 251 412 592 742 895 283 259 516 452 1088 901 987 774 1305
1045 1731 1471 138 138 308 318 378 400 587 687 910 1334 1018 2041 30 201 38
604 15 804 -51 433 -184 810 -406 1145 -418 628 -1090 1034 -1900 1147 -126
18 -555 18 -675 1 -543 -78 -986 -283 -1348 -622 -284 -266 -516 -650 -643
-1060 -18 -58 -37 -105 -44 -105 -7 0 -26 47 -44 105 -127 410 -359 794 -643
1060 -353 330 -784 534 -1303 615 -100 16 -505 29 -590 19z"/>
</g>
</svg>
